<svg width="802" height="780" viewBox="0 0 802 780" fill="none" xmlns="http://www.w3.org/2000/svg">
<path d="M0 15C0 6.71573 6.71573 0 15 0H787C795.284 0 802 6.71573 802 15V95H0V15Z" fill="#E1F2FF"/>
<path d="M1 96H801V765C801 772.732 794.732 779 787 779H15C7.268 779 1 772.732 1 765V96Z" stroke="#414F7B" stroke-width="2"/>
<rect x="1" y="1" width="800" height="778" rx="14" stroke="#414F7B" stroke-width="2"/>
<path d="M621.911 625.912C622.139 625.409 621.915 624.816 621.412 624.589L613.211 620.881C612.708 620.653 612.116 620.877 611.888 621.38C611.661 621.883 611.884 622.475 612.387 622.703L619.677 625.999L616.381 633.289C616.153 633.792 616.377 634.384 616.88 634.612C617.383 634.839 617.975 634.616 618.203 634.113L621.911 625.912ZM620.647 624.564L591.388 635.602L592.094 637.473L621.353 626.436L620.647 624.564Z" fill="#414F7B"/>
<path d="M175.332 176.29C173.766 176.29 172.422 176 171.301 175.42C170.199 174.84 169.348 173.951 168.749 172.752C168.15 171.553 167.85 170.016 167.85 168.141V156.367C167.85 156.154 167.908 155.99 168.024 155.874C168.14 155.758 168.295 155.7 168.488 155.7H169.01C169.223 155.7 169.387 155.758 169.503 155.874C169.619 155.99 169.677 156.154 169.677 156.367V168.228C169.677 170.393 170.18 171.988 171.185 173.013C172.21 174.038 173.592 174.55 175.332 174.55C177.053 174.55 178.416 174.038 179.421 173.013C180.446 171.988 180.958 170.393 180.958 168.228V156.367C180.958 156.154 181.016 155.99 181.132 155.874C181.267 155.758 181.432 155.7 181.625 155.7H182.147C182.34 155.7 182.495 155.758 182.611 155.874C182.727 155.99 182.785 156.154 182.785 156.367V168.141C182.785 170.016 182.485 171.553 181.886 172.752C181.306 173.951 180.465 174.84 179.363 175.42C178.261 176 176.917 176.29 175.332 176.29ZM188.336 176C188.142 176 187.988 175.942 187.872 175.826C187.756 175.71 187.698 175.555 187.698 175.362V161.558C187.698 161.365 187.756 161.21 187.872 161.094C187.988 160.978 188.142 160.92 188.336 160.92H188.829C189.022 160.92 189.177 160.978 189.293 161.094C189.409 161.21 189.467 161.365 189.467 161.558V162.921C189.989 162.244 190.617 161.693 191.352 161.268C192.106 160.843 193.101 160.63 194.339 160.63C195.653 160.63 196.746 160.92 197.616 161.5C198.505 162.061 199.162 162.834 199.588 163.82C200.032 164.787 200.255 165.889 200.255 167.126V175.362C200.255 175.555 200.197 175.71 200.081 175.826C199.965 175.942 199.81 176 199.617 176H199.124C198.93 176 198.776 175.942 198.66 175.826C198.544 175.71 198.486 175.555 198.486 175.362V167.271C198.486 165.724 198.109 164.516 197.355 163.646C196.601 162.757 195.499 162.312 194.049 162.312C192.676 162.312 191.564 162.757 190.714 163.646C189.882 164.516 189.467 165.724 189.467 167.271V175.362C189.467 175.555 189.409 175.71 189.293 175.826C189.177 175.942 189.022 176 188.829 176H188.336ZM205.441 176C205.248 176 205.093 175.942 204.977 175.826C204.861 175.71 204.803 175.555 204.803 175.362V161.558C204.803 161.365 204.861 161.21 204.977 161.094C205.093 160.978 205.248 160.92 205.441 160.92H205.934C206.127 160.92 206.282 160.978 206.398 161.094C206.514 161.21 206.572 161.365 206.572 161.558V175.362C206.572 175.555 206.514 175.71 206.398 175.826C206.282 175.942 206.127 176 205.934 176H205.441ZM205.122 157.817C204.929 157.817 204.774 157.759 204.658 157.643C204.542 157.527 204.484 157.372 204.484 157.179V156.077C204.484 155.884 204.542 155.729 204.658 155.613C204.774 155.478 204.929 155.41 205.122 155.41H206.224C206.417 155.41 206.572 155.478 206.688 155.613C206.823 155.729 206.891 155.884 206.891 156.077V157.179C206.891 157.372 206.823 157.527 206.688 157.643C206.572 157.759 206.417 157.817 206.224 157.817H205.122ZM216.973 176.29C215.62 176.29 214.469 176.029 213.522 175.507C212.575 174.966 211.85 174.192 211.347 173.187C210.864 172.182 210.603 170.993 210.564 169.62C210.545 169.33 210.535 168.943 210.535 168.46C210.535 167.977 210.545 167.59 210.564 167.3C210.603 165.908 210.864 164.719 211.347 163.733C211.85 162.728 212.575 161.964 213.522 161.442C214.469 160.901 215.62 160.63 216.973 160.63C217.998 160.63 218.877 160.775 219.612 161.065C220.366 161.336 220.985 161.703 221.468 162.167C221.951 162.612 222.319 163.105 222.57 163.646C222.821 164.187 222.957 164.719 222.976 165.241C222.995 165.434 222.937 165.589 222.802 165.705C222.667 165.821 222.512 165.879 222.338 165.879H221.932C221.739 165.879 221.594 165.84 221.497 165.763C221.42 165.666 221.333 165.502 221.236 165.27C220.83 164.168 220.269 163.404 219.554 162.979C218.858 162.534 217.998 162.312 216.973 162.312C215.658 162.312 214.566 162.718 213.696 163.53C212.845 164.323 212.391 165.628 212.333 167.445C212.294 168.122 212.294 168.798 212.333 169.475C212.391 171.292 212.845 172.607 213.696 173.419C214.566 174.212 215.658 174.608 216.973 174.608C217.998 174.608 218.858 174.395 219.554 173.97C220.269 173.525 220.83 172.752 221.236 171.65C221.333 171.418 221.42 171.263 221.497 171.186C221.594 171.089 221.739 171.041 221.932 171.041H222.338C222.512 171.041 222.667 171.099 222.802 171.215C222.937 171.331 222.995 171.486 222.976 171.679C222.957 172.104 222.87 172.53 222.715 172.955C222.56 173.38 222.319 173.796 221.99 174.202C221.681 174.608 221.294 174.966 220.83 175.275C220.366 175.584 219.805 175.826 219.148 176C218.51 176.193 217.785 176.29 216.973 176.29ZM230.868 176.29C229.94 176.29 229.08 176.097 228.287 175.71C227.514 175.323 226.885 174.811 226.402 174.173C225.919 173.516 225.677 172.781 225.677 171.969C225.677 170.654 226.209 169.601 227.272 168.808C228.335 168.015 229.718 167.503 231.419 167.271L236.001 166.633V165.618C236.001 164.593 235.682 163.791 235.044 163.211C234.425 162.612 233.43 162.312 232.057 162.312C231.052 162.312 230.24 162.515 229.621 162.921C229.002 163.308 228.577 163.82 228.345 164.458C228.248 164.748 228.065 164.893 227.794 164.893H227.33C227.098 164.893 226.934 164.835 226.837 164.719C226.74 164.584 226.692 164.429 226.692 164.255C226.692 163.984 226.789 163.646 226.982 163.24C227.195 162.834 227.514 162.438 227.939 162.051C228.364 161.645 228.915 161.307 229.592 161.036C230.269 160.765 231.09 160.63 232.057 160.63C233.198 160.63 234.135 160.785 234.87 161.094C235.624 161.403 236.204 161.809 236.61 162.312C237.035 162.795 237.335 163.337 237.509 163.936C237.683 164.535 237.77 165.125 237.77 165.705V175.362C237.77 175.555 237.712 175.71 237.596 175.826C237.48 175.942 237.325 176 237.132 176H236.639C236.446 176 236.291 175.942 236.175 175.826C236.059 175.71 236.001 175.555 236.001 175.362V173.999C235.769 174.347 235.44 174.695 235.015 175.043C234.59 175.391 234.039 175.691 233.362 175.942C232.705 176.174 231.873 176.29 230.868 176.29ZM231.158 174.608C232.047 174.608 232.859 174.415 233.594 174.028C234.329 173.641 234.909 173.052 235.334 172.259C235.779 171.447 236.001 170.432 236.001 169.214V168.228L232.26 168.75C230.675 168.963 229.476 169.33 228.664 169.852C227.852 170.374 227.446 171.031 227.446 171.824C227.446 172.462 227.63 172.984 227.997 173.39C228.364 173.796 228.828 174.105 229.389 174.318C229.969 174.511 230.559 174.608 231.158 174.608ZM247.141 176.29C246.136 176.29 245.266 176.155 244.531 175.884C243.816 175.613 243.226 175.294 242.762 174.927C242.298 174.54 241.95 174.163 241.718 173.796C241.505 173.429 241.389 173.148 241.37 172.955C241.351 172.742 241.418 172.588 241.573 172.491C241.728 172.375 241.873 172.317 242.008 172.317H242.443C242.559 172.317 242.656 172.336 242.733 172.375C242.83 172.414 242.946 172.52 243.081 172.694C243.332 173.023 243.622 173.342 243.951 173.651C244.28 173.941 244.695 174.173 245.198 174.347C245.72 174.521 246.368 174.608 247.141 174.608C248.301 174.608 249.258 174.386 250.012 173.941C250.766 173.496 251.143 172.839 251.143 171.969C251.143 171.428 250.988 170.993 250.679 170.664C250.389 170.335 249.886 170.045 249.171 169.794C248.456 169.543 247.489 169.282 246.271 169.011C245.053 168.721 244.115 168.373 243.458 167.967C242.82 167.561 242.385 167.097 242.153 166.575C241.921 166.034 241.805 165.454 241.805 164.835C241.805 164.158 241.998 163.501 242.385 162.863C242.772 162.206 243.342 161.674 244.096 161.268C244.869 160.843 245.836 160.63 246.996 160.63C247.943 160.63 248.746 160.756 249.403 161.007C250.08 161.258 250.631 161.568 251.056 161.935C251.481 162.283 251.791 162.631 251.984 162.979C252.197 163.327 252.313 163.607 252.332 163.82C252.351 164.013 252.293 164.168 252.158 164.284C252.023 164.4 251.868 164.458 251.694 164.458H251.259C251.104 164.458 250.979 164.429 250.882 164.371C250.785 164.294 250.698 164.197 250.621 164.081C250.428 163.772 250.196 163.482 249.925 163.211C249.654 162.94 249.287 162.728 248.823 162.573C248.378 162.399 247.769 162.312 246.996 162.312C245.836 162.312 244.976 162.554 244.415 163.037C243.854 163.501 243.574 164.1 243.574 164.835C243.574 165.26 243.69 165.637 243.922 165.966C244.154 166.275 244.589 166.565 245.227 166.836C245.865 167.087 246.793 167.358 248.011 167.648C249.248 167.919 250.225 168.257 250.94 168.663C251.655 169.05 252.158 169.514 252.448 170.055C252.757 170.596 252.912 171.234 252.912 171.969C252.912 172.742 252.69 173.458 252.245 174.115C251.82 174.772 251.172 175.304 250.302 175.71C249.451 176.097 248.398 176.29 247.141 176.29ZM261.704 176C260.699 176 259.906 175.787 259.326 175.362C258.746 174.937 258.34 174.357 258.108 173.622C257.876 172.887 257.76 172.066 257.76 171.157V162.602H255.498C255.305 162.602 255.15 162.544 255.034 162.428C254.918 162.312 254.86 162.157 254.86 161.964V161.558C254.86 161.365 254.918 161.21 255.034 161.094C255.15 160.978 255.305 160.92 255.498 160.92H257.76V156.048C257.76 155.855 257.818 155.7 257.934 155.584C258.05 155.468 258.205 155.41 258.398 155.41H258.891C259.085 155.41 259.239 155.468 259.355 155.584C259.471 155.7 259.529 155.855 259.529 156.048V160.92H263.125C263.319 160.92 263.473 160.978 263.589 161.094C263.705 161.21 263.763 161.365 263.763 161.558V161.964C263.763 162.157 263.705 162.312 263.589 162.428C263.473 162.544 263.319 162.602 263.125 162.602H259.529V171.041C259.529 172.066 259.694 172.868 260.022 173.448C260.37 174.028 260.979 174.318 261.849 174.318H263.415C263.609 174.318 263.763 174.376 263.879 174.492C263.995 174.608 264.053 174.763 264.053 174.956V175.362C264.053 175.555 263.995 175.71 263.879 175.826C263.763 175.942 263.609 176 263.415 176H261.704Z" fill="#414F7B"/>
<path d="M556.005 176C555.812 176 555.648 175.942 555.512 175.826C555.396 175.71 555.338 175.555 555.338 175.362V156.367C555.338 156.154 555.396 155.99 555.512 155.874C555.648 155.758 555.812 155.7 556.005 155.7H556.73C556.924 155.7 557.069 155.748 557.165 155.845C557.262 155.942 557.32 156.019 557.339 156.077L563.922 168.895L570.534 156.077C570.573 156.019 570.631 155.942 570.708 155.845C570.805 155.748 570.95 155.7 571.143 155.7H571.839C572.052 155.7 572.216 155.758 572.332 155.874C572.448 155.99 572.506 156.154 572.506 156.367V175.362C572.506 175.555 572.448 175.71 572.332 175.826C572.216 175.942 572.052 176 571.839 176H571.317C571.124 176 570.969 175.942 570.853 175.826C570.737 175.71 570.679 175.555 570.679 175.362V159.644L565.14 170.548C565.063 170.741 564.947 170.886 564.792 170.983C564.657 171.08 564.473 171.128 564.241 171.128H563.603C563.371 171.128 563.188 171.08 563.052 170.983C562.917 170.886 562.801 170.741 562.704 170.548L557.165 159.644V175.362C557.165 175.555 557.107 175.71 556.991 175.826C556.875 175.942 556.721 176 556.527 176H556.005ZM583.244 176.29C581.93 176.29 580.837 176.01 579.967 175.449C579.117 174.869 578.479 174.086 578.053 173.1C577.647 172.114 577.444 171.012 577.444 169.794V161.558C577.444 161.365 577.502 161.21 577.618 161.094C577.734 160.978 577.889 160.92 578.082 160.92H578.575C578.769 160.92 578.923 160.978 579.039 161.094C579.155 161.21 579.213 161.365 579.213 161.558V169.649C579.213 172.955 580.654 174.608 583.534 174.608C584.907 174.608 586.009 174.173 586.84 173.303C587.672 172.414 588.087 171.196 588.087 169.649V161.558C588.087 161.365 588.145 161.21 588.261 161.094C588.377 160.978 588.532 160.92 588.725 160.92H589.218C589.412 160.92 589.566 160.978 589.682 161.094C589.798 161.21 589.856 161.365 589.856 161.558V175.362C589.856 175.555 589.798 175.71 589.682 175.826C589.566 175.942 589.412 176 589.218 176H588.725C588.532 176 588.377 175.942 588.261 175.826C588.145 175.71 588.087 175.555 588.087 175.362V173.999C587.565 174.676 586.937 175.227 586.202 175.652C585.487 176.077 584.501 176.29 583.244 176.29ZM595.22 176C595.027 176 594.872 175.942 594.756 175.826C594.64 175.71 594.582 175.555 594.582 175.362V156.048C594.582 155.855 594.64 155.7 594.756 155.584C594.872 155.468 595.027 155.41 595.22 155.41H595.713C595.906 155.41 596.061 155.468 596.177 155.584C596.293 155.7 596.351 155.855 596.351 156.048V175.362C596.351 175.555 596.293 175.71 596.177 175.826C596.061 175.942 595.906 176 595.713 176H595.22ZM606.142 176C605.136 176 604.344 175.787 603.764 175.362C603.184 174.937 602.778 174.357 602.546 173.622C602.314 172.887 602.198 172.066 602.198 171.157V162.602H599.936C599.742 162.602 599.588 162.544 599.472 162.428C599.356 162.312 599.298 162.157 599.298 161.964V161.558C599.298 161.365 599.356 161.21 599.472 161.094C599.588 160.978 599.742 160.92 599.936 160.92H602.198V156.048C602.198 155.855 602.256 155.7 602.372 155.584C602.488 155.468 602.642 155.41 602.836 155.41H603.329C603.522 155.41 603.677 155.468 603.793 155.584C603.909 155.7 603.967 155.855 603.967 156.048V160.92H607.563C607.756 160.92 607.911 160.978 608.027 161.094C608.143 161.21 608.201 161.365 608.201 161.558V161.964C608.201 162.157 608.143 162.312 608.027 162.428C607.911 162.544 607.756 162.602 607.563 162.602H603.967V171.041C603.967 172.066 604.131 172.868 604.46 173.448C604.808 174.028 605.417 174.318 606.287 174.318H607.853C608.046 174.318 608.201 174.376 608.317 174.492C608.433 174.608 608.491 174.763 608.491 174.956V175.362C608.491 175.555 608.433 175.71 608.317 175.826C608.201 175.942 608.046 176 607.853 176H606.142ZM612.127 176C611.933 176 611.779 175.942 611.663 175.826C611.547 175.71 611.489 175.555 611.489 175.362V161.558C611.489 161.365 611.547 161.21 611.663 161.094C611.779 160.978 611.933 160.92 612.127 160.92H612.62C612.813 160.92 612.968 160.978 613.084 161.094C613.2 161.21 613.258 161.365 613.258 161.558V175.362C613.258 175.555 613.2 175.71 613.084 175.826C612.968 175.942 612.813 176 612.62 176H612.127ZM611.808 157.817C611.614 157.817 611.46 157.759 611.344 157.643C611.228 157.527 611.17 157.372 611.17 157.179V156.077C611.17 155.884 611.228 155.729 611.344 155.613C611.46 155.478 611.614 155.41 611.808 155.41H612.91C613.103 155.41 613.258 155.478 613.374 155.613C613.509 155.729 613.577 155.884 613.577 156.077V157.179C613.577 157.372 613.509 157.527 613.374 157.643C613.258 157.759 613.103 157.817 612.91 157.817H611.808ZM623.659 176.29C622.305 176.29 621.155 176.029 620.208 175.507C619.26 174.966 618.535 174.192 618.033 173.187C617.549 172.182 617.288 170.993 617.25 169.62C617.23 169.33 617.221 168.943 617.221 168.46C617.221 167.977 617.23 167.59 617.25 167.3C617.288 165.908 617.549 164.719 618.033 163.733C618.535 162.728 619.26 161.964 620.208 161.442C621.155 160.901 622.305 160.63 623.659 160.63C624.683 160.63 625.563 160.775 626.298 161.065C627.052 161.336 627.67 161.703 628.154 162.167C628.637 162.612 629.004 163.105 629.256 163.646C629.507 164.187 629.642 164.719 629.662 165.241C629.681 165.434 629.623 165.589 629.488 165.705C629.352 165.821 629.198 165.879 629.024 165.879H628.618C628.424 165.879 628.279 165.84 628.183 165.763C628.105 165.666 628.018 165.502 627.922 165.27C627.516 164.168 626.955 163.404 626.24 162.979C625.544 162.534 624.683 162.312 623.659 162.312C622.344 162.312 621.252 162.718 620.382 163.53C619.531 164.323 619.077 165.628 619.019 167.445C618.98 168.122 618.98 168.798 619.019 169.475C619.077 171.292 619.531 172.607 620.382 173.419C621.252 174.212 622.344 174.608 623.659 174.608C624.683 174.608 625.544 174.395 626.24 173.97C626.955 173.525 627.516 172.752 627.922 171.65C628.018 171.418 628.105 171.263 628.183 171.186C628.279 171.089 628.424 171.041 628.618 171.041H629.024C629.198 171.041 629.352 171.099 629.488 171.215C629.623 171.331 629.681 171.486 629.662 171.679C629.642 172.104 629.555 172.53 629.401 172.955C629.246 173.38 629.004 173.796 628.676 174.202C628.366 174.608 627.98 174.966 627.516 175.275C627.052 175.584 626.491 175.826 625.834 176C625.196 176.193 624.471 176.29 623.659 176.29ZM637.554 176.29C636.626 176.29 635.765 176.097 634.973 175.71C634.199 175.323 633.571 174.811 633.088 174.173C632.604 173.516 632.363 172.781 632.363 171.969C632.363 170.654 632.894 169.601 633.958 168.808C635.021 168.015 636.403 167.503 638.105 167.271L642.687 166.633V165.618C642.687 164.593 642.368 163.791 641.73 163.211C641.111 162.612 640.115 162.312 638.743 162.312C637.737 162.312 636.925 162.515 636.307 162.921C635.688 163.308 635.263 163.82 635.031 164.458C634.934 164.748 634.75 164.893 634.48 164.893H634.016C633.784 164.893 633.619 164.835 633.523 164.719C633.426 164.584 633.378 164.429 633.378 164.255C633.378 163.984 633.474 163.646 633.668 163.24C633.88 162.834 634.199 162.438 634.625 162.051C635.05 161.645 635.601 161.307 636.278 161.036C636.954 160.765 637.776 160.63 638.743 160.63C639.883 160.63 640.821 160.785 641.556 161.094C642.31 161.403 642.89 161.809 643.296 162.312C643.721 162.795 644.021 163.337 644.195 163.936C644.369 164.535 644.456 165.125 644.456 165.705V175.362C644.456 175.555 644.398 175.71 644.282 175.826C644.166 175.942 644.011 176 643.818 176H643.325C643.131 176 642.977 175.942 642.861 175.826C642.745 175.71 642.687 175.555 642.687 175.362V173.999C642.455 174.347 642.126 174.695 641.701 175.043C641.275 175.391 640.724 175.691 640.048 175.942C639.39 176.174 638.559 176.29 637.554 176.29ZM637.844 174.608C638.733 174.608 639.545 174.415 640.28 174.028C641.014 173.641 641.594 173.052 642.02 172.259C642.464 171.447 642.687 170.432 642.687 169.214V168.228L638.946 168.75C637.36 168.963 636.162 169.33 635.35 169.852C634.538 170.374 634.132 171.031 634.132 171.824C634.132 172.462 634.315 172.984 634.683 173.39C635.05 173.796 635.514 174.105 636.075 174.318C636.655 174.511 637.244 174.608 637.844 174.608ZM653.826 176.29C652.821 176.29 651.951 176.155 651.216 175.884C650.501 175.613 649.911 175.294 649.447 174.927C648.983 174.54 648.635 174.163 648.403 173.796C648.191 173.429 648.075 173.148 648.055 172.955C648.036 172.742 648.104 172.588 648.258 172.491C648.413 172.375 648.558 172.317 648.693 172.317H649.128C649.244 172.317 649.341 172.336 649.418 172.375C649.515 172.414 649.631 172.52 649.766 172.694C650.018 173.023 650.308 173.342 650.636 173.651C650.965 173.941 651.381 174.173 651.883 174.347C652.405 174.521 653.053 174.608 653.826 174.608C654.986 174.608 655.943 174.386 656.697 173.941C657.451 173.496 657.828 172.839 657.828 171.969C657.828 171.428 657.674 170.993 657.364 170.664C657.074 170.335 656.572 170.045 655.856 169.794C655.141 169.543 654.174 169.282 652.956 169.011C651.738 168.721 650.801 168.373 650.143 167.967C649.505 167.561 649.07 167.097 648.838 166.575C648.606 166.034 648.49 165.454 648.49 164.835C648.49 164.158 648.684 163.501 649.07 162.863C649.457 162.206 650.027 161.674 650.781 161.268C651.555 160.843 652.521 160.63 653.681 160.63C654.629 160.63 655.431 160.756 656.088 161.007C656.765 161.258 657.316 161.568 657.741 161.935C658.167 162.283 658.476 162.631 658.669 162.979C658.882 163.327 658.998 163.607 659.017 163.82C659.037 164.013 658.979 164.168 658.843 164.284C658.708 164.4 658.553 164.458 658.379 164.458H657.944C657.79 164.458 657.664 164.429 657.567 164.371C657.471 164.294 657.384 164.197 657.306 164.081C657.113 163.772 656.881 163.482 656.61 163.211C656.34 162.94 655.972 162.728 655.508 162.573C655.064 162.399 654.455 162.312 653.681 162.312C652.521 162.312 651.661 162.554 651.1 163.037C650.54 163.501 650.259 164.1 650.259 164.835C650.259 165.26 650.375 165.637 650.607 165.966C650.839 166.275 651.274 166.565 651.912 166.836C652.55 167.087 653.478 167.358 654.696 167.648C655.934 167.919 656.91 168.257 657.625 168.663C658.341 169.05 658.843 169.514 659.133 170.055C659.443 170.596 659.597 171.234 659.597 171.969C659.597 172.742 659.375 173.458 658.93 174.115C658.505 174.772 657.857 175.304 656.987 175.71C656.137 176.097 655.083 176.29 653.826 176.29ZM668.39 176C667.384 176 666.592 175.787 666.012 175.362C665.432 174.937 665.026 174.357 664.794 173.622C664.562 172.887 664.446 172.066 664.446 171.157V162.602H662.184C661.99 162.602 661.836 162.544 661.72 162.428C661.604 162.312 661.546 162.157 661.546 161.964V161.558C661.546 161.365 661.604 161.21 661.72 161.094C661.836 160.978 661.99 160.92 662.184 160.92H664.446V156.048C664.446 155.855 664.504 155.7 664.62 155.584C664.736 155.468 664.89 155.41 665.084 155.41H665.577C665.77 155.41 665.925 155.468 666.041 155.584C666.157 155.7 666.215 155.855 666.215 156.048V160.92H669.811C670.004 160.92 670.159 160.978 670.275 161.094C670.391 161.21 670.449 161.365 670.449 161.558V161.964C670.449 162.157 670.391 162.312 670.275 162.428C670.159 162.544 670.004 162.602 669.811 162.602H666.215V171.041C666.215 172.066 666.379 172.868 666.708 173.448C667.056 174.028 667.665 174.318 668.535 174.318H670.101C670.294 174.318 670.449 174.376 670.565 174.492C670.681 174.608 670.739 174.763 670.739 174.956V175.362C670.739 175.555 670.681 175.71 670.565 175.826C670.449 175.942 670.294 176 670.101 176H668.39Z" fill="#414F7B"/>
<path d="M226.637 63C226.337 63 226.097 62.91 225.917 62.73C225.737 62.55 225.647 62.31 225.647 62.01V32.535C225.647 32.205 225.737 31.95 225.917 31.77C226.097 31.59 226.337 31.5 226.637 31.5L237.122 31.5C240.272 31.5 242.777 32.25 244.637 33.75C246.527 35.25 247.472 37.53 247.472 40.59C247.472 42.99 246.872 44.91 245.672 46.35C244.472 47.79 242.807 48.765 240.677 49.275L247.922 61.605C248.012 61.785 248.057 61.95 248.057 62.1C248.057 62.34 247.967 62.55 247.787 62.73C247.607 62.91 247.397 63 247.157 63H246.617C246.137 63 245.777 62.88 245.537 62.64C245.297 62.37 245.087 62.085 244.907 61.785L237.752 49.68H228.482V62.01C228.482 62.31 228.392 62.55 228.212 62.73C228.032 62.91 227.777 63 227.447 63H226.637ZM228.482 46.98H236.897C239.507 46.98 241.442 46.455 242.702 45.405C243.992 44.325 244.637 42.72 244.637 40.59C244.637 38.46 243.992 36.87 242.702 35.82C241.442 34.74 239.507 34.2 236.897 34.2H228.482V46.98ZM262.493 63.45C260.333 63.45 258.518 63 257.048 62.1C255.608 61.2 254.498 59.97 253.718 58.41C252.968 56.85 252.563 55.11 252.503 53.19C252.473 52.74 252.458 52.11 252.458 51.3C252.458 50.49 252.473 49.86 252.503 49.41C252.563 47.46 252.968 45.72 253.718 44.19C254.498 42.63 255.608 41.4 257.048 40.5C258.518 39.6 260.333 39.15 262.493 39.15C264.653 39.15 266.453 39.6 267.893 40.5C269.363 41.4 270.473 42.63 271.223 44.19C272.003 45.72 272.423 47.46 272.483 49.41C272.513 49.86 272.528 50.49 272.528 51.3C272.528 52.11 272.513 52.74 272.483 53.19C272.423 55.11 272.003 56.85 271.223 58.41C270.473 59.97 269.363 61.2 267.893 62.1C266.453 63 264.653 63.45 262.493 63.45ZM262.493 60.84C264.593 60.84 266.303 60.165 267.623 58.815C268.943 57.465 269.648 55.515 269.738 52.965C269.768 52.515 269.783 51.96 269.783 51.3C269.783 50.64 269.768 50.085 269.738 49.635C269.648 47.055 268.943 45.105 267.623 43.785C266.303 42.435 264.593 41.76 262.493 41.76C260.393 41.76 258.683 42.435 257.363 43.785C256.043 45.105 255.338 47.055 255.248 49.635C255.218 50.085 255.203 50.64 255.203 51.3C255.203 51.96 255.218 52.515 255.248 52.965C255.338 55.515 256.043 57.465 257.363 58.815C258.683 60.165 260.393 60.84 262.493 60.84ZM287.451 63.45C285.411 63.45 283.716 63.015 282.366 62.145C281.046 61.245 280.056 60.03 279.396 58.5C278.766 56.97 278.451 55.26 278.451 53.37V40.59C278.451 40.29 278.541 40.05 278.721 39.87C278.901 39.69 279.141 39.6 279.441 39.6H280.206C280.506 39.6 280.746 39.69 280.926 39.87C281.106 40.05 281.196 40.29 281.196 40.59V53.145C281.196 58.275 283.431 60.84 287.901 60.84C290.031 60.84 291.741 60.165 293.031 58.815C294.321 57.435 294.966 55.545 294.966 53.145V40.59C294.966 40.29 295.056 40.05 295.236 39.87C295.416 39.69 295.656 39.6 295.956 39.6H296.721C297.021 39.6 297.261 39.69 297.441 39.87C297.621 40.05 297.711 40.29 297.711 40.59V62.01C297.711 62.31 297.621 62.55 297.441 62.73C297.261 62.91 297.021 63 296.721 63H295.956C295.656 63 295.416 62.91 295.236 62.73C295.056 62.55 294.966 62.31 294.966 62.01V59.895C294.156 60.945 293.181 61.8 292.041 62.46C290.931 63.12 289.401 63.45 287.451 63.45ZM312.874 63C311.314 63 310.084 62.67 309.184 62.01C308.284 61.35 307.654 60.45 307.294 59.31C306.934 58.17 306.754 56.895 306.754 55.485V42.21H303.244C302.944 42.21 302.704 42.12 302.524 41.94C302.344 41.76 302.254 41.52 302.254 41.22V40.59C302.254 40.29 302.344 40.05 302.524 39.87C302.704 39.69 302.944 39.6 303.244 39.6H306.754V32.04C306.754 31.74 306.844 31.5 307.024 31.32C307.204 31.14 307.444 31.05 307.744 31.05H308.509C308.809 31.05 309.049 31.14 309.229 31.32C309.409 31.5 309.499 31.74 309.499 32.04V39.6H315.079C315.379 39.6 315.619 39.69 315.799 39.87C315.979 40.05 316.069 40.29 316.069 40.59V41.22C316.069 41.52 315.979 41.76 315.799 41.94C315.619 42.12 315.379 42.21 315.079 42.21H309.499V55.305C309.499 56.895 309.754 58.14 310.264 59.04C310.804 59.94 311.749 60.39 313.099 60.39H315.529C315.829 60.39 316.069 60.48 316.249 60.66C316.429 60.84 316.519 61.08 316.519 61.38V62.01C316.519 62.31 316.429 62.55 316.249 62.73C316.069 62.91 315.829 63 315.529 63H312.874ZM322.161 63C321.861 63 321.621 62.91 321.441 62.73C321.261 62.55 321.171 62.31 321.171 62.01V40.59C321.171 40.29 321.261 40.05 321.441 39.87C321.621 39.69 321.861 39.6 322.161 39.6H322.926C323.226 39.6 323.466 39.69 323.646 39.87C323.826 40.05 323.916 40.29 323.916 40.59V62.01C323.916 62.31 323.826 62.55 323.646 62.73C323.466 62.91 323.226 63 322.926 63H322.161ZM321.666 34.785C321.366 34.785 321.126 34.695 320.946 34.515C320.766 34.335 320.676 34.095 320.676 33.795V32.085C320.676 31.785 320.766 31.545 320.946 31.365C321.126 31.155 321.366 31.05 321.666 31.05H323.376C323.676 31.05 323.916 31.155 324.096 31.365C324.306 31.545 324.411 31.785 324.411 32.085V33.795C324.411 34.095 324.306 34.335 324.096 34.515C323.916 34.695 323.676 34.785 323.376 34.785H321.666ZM332.18 63C331.88 63 331.64 62.91 331.46 62.73C331.28 62.55 331.19 62.31 331.19 62.01V40.59C331.19 40.29 331.28 40.05 331.46 39.87C331.64 39.69 331.88 39.6 332.18 39.6H332.945C333.245 39.6 333.485 39.69 333.665 39.87C333.845 40.05 333.935 40.29 333.935 40.59V42.705C334.745 41.655 335.72 40.8 336.86 40.14C338.03 39.48 339.575 39.15 341.495 39.15C343.535 39.15 345.23 39.6 346.58 40.5C347.96 41.37 348.98 42.57 349.64 44.1C350.33 45.6 350.675 47.31 350.675 49.23V62.01C350.675 62.31 350.585 62.55 350.405 62.73C350.225 62.91 349.985 63 349.685 63H348.92C348.62 63 348.38 62.91 348.2 62.73C348.02 62.55 347.93 62.31 347.93 62.01V49.455C347.93 47.055 347.345 45.18 346.175 43.83C345.005 42.45 343.295 41.76 341.045 41.76C338.915 41.76 337.19 42.45 335.87 43.83C334.58 45.18 333.935 47.055 333.935 49.455V62.01C333.935 62.31 333.845 62.55 333.665 62.73C333.485 62.91 333.245 63 332.945 63H332.18ZM366.463 72.9C364.543 72.9 362.968 72.645 361.738 72.135C360.538 71.625 359.593 70.995 358.903 70.245C358.243 69.525 357.778 68.79 357.508 68.04C357.238 67.32 357.088 66.735 357.058 66.285C357.028 65.985 357.118 65.73 357.328 65.52C357.538 65.34 357.778 65.25 358.048 65.25H358.678C358.918 65.25 359.128 65.295 359.308 65.385C359.488 65.505 359.638 65.775 359.758 66.195C359.938 66.675 360.223 67.23 360.613 67.86C361.033 68.52 361.678 69.09 362.548 69.57C363.448 70.05 364.678 70.29 366.238 70.29C367.888 70.29 369.268 70.08 370.378 69.66C371.488 69.24 372.328 68.49 372.898 67.41C373.498 66.36 373.798 64.89 373.798 63V59.895C373.048 60.915 372.058 61.77 370.828 62.46C369.628 63.12 368.098 63.45 366.238 63.45C364.498 63.45 363.013 63.135 361.783 62.505C360.583 61.875 359.608 61.035 358.858 59.985C358.108 58.935 357.553 57.765 357.193 56.475C356.833 55.185 356.638 53.88 356.608 52.56C356.578 51.72 356.578 50.88 356.608 50.04C356.638 48.72 356.833 47.415 357.193 46.125C357.553 44.835 358.108 43.665 358.858 42.615C359.608 41.565 360.583 40.725 361.783 40.095C363.013 39.465 364.498 39.15 366.238 39.15C368.098 39.15 369.628 39.495 370.828 40.185C372.058 40.875 373.048 41.715 373.798 42.705V40.635C373.798 40.335 373.888 40.095 374.068 39.915C374.248 39.705 374.488 39.6 374.788 39.6H375.508C375.808 39.6 376.048 39.705 376.228 39.915C376.438 40.095 376.543 40.335 376.543 40.635V62.55C376.543 64.47 376.258 66.21 375.688 67.77C375.118 69.33 374.098 70.575 372.628 71.505C371.188 72.435 369.133 72.9 366.463 72.9ZM366.508 60.84C368.218 60.84 369.598 60.435 370.648 59.625C371.698 58.815 372.463 57.81 372.943 56.61C373.453 55.38 373.738 54.15 373.798 52.92C373.828 52.47 373.843 51.93 373.843 51.3C373.843 50.67 373.828 50.13 373.798 49.68C373.738 48.45 373.453 47.235 372.943 46.035C372.463 44.805 371.698 43.785 370.648 42.975C369.598 42.165 368.218 41.76 366.508 41.76C364.768 41.76 363.373 42.15 362.323 42.93C361.303 43.71 360.568 44.73 360.118 45.99C359.668 47.25 359.413 48.6 359.353 50.04C359.323 50.88 359.323 51.72 359.353 52.56C359.413 54 359.668 55.35 360.118 56.61C360.568 57.87 361.303 58.89 362.323 59.67C363.373 60.45 364.768 60.84 366.508 60.84ZM405.517 63.45C403.087 63.45 401.017 63.06 399.307 62.28C397.627 61.5 396.337 60.495 395.437 59.265C394.537 58.035 394.057 56.73 393.997 55.35C393.997 55.11 394.087 54.9 394.267 54.72C394.447 54.54 394.672 54.45 394.942 54.45H395.842C396.142 54.45 396.367 54.54 396.517 54.72C396.697 54.9 396.802 55.11 396.832 55.35C396.952 56.19 397.327 57.03 397.957 57.87C398.587 58.68 399.517 59.37 400.747 59.94C401.977 60.48 403.567 60.75 405.517 60.75C408.457 60.75 410.602 60.225 411.952 59.175C413.302 58.095 413.977 56.655 413.977 54.855C413.977 53.655 413.617 52.695 412.897 51.975C412.207 51.225 411.142 50.565 409.702 49.995C408.262 49.395 406.417 48.735 404.167 48.015C402.037 47.325 400.282 46.62 398.902 45.9C397.522 45.15 396.502 44.25 395.842 43.2C395.212 42.15 394.897 40.8 394.897 39.15C394.897 37.62 395.302 36.255 396.112 35.055C396.922 33.825 398.092 32.85 399.622 32.13C401.182 31.41 403.072 31.05 405.292 31.05C407.062 31.05 408.607 31.29 409.927 31.77C411.247 32.25 412.342 32.895 413.212 33.705C414.082 34.485 414.742 35.34 415.192 36.27C415.642 37.17 415.882 38.055 415.912 38.925C415.912 39.135 415.837 39.345 415.687 39.555C415.537 39.735 415.297 39.825 414.967 39.825H414.067C413.917 39.825 413.722 39.765 413.482 39.645C413.272 39.525 413.137 39.285 413.077 38.925C412.897 37.425 412.102 36.195 410.692 35.235C409.312 34.245 407.512 33.75 405.292 33.75C403.072 33.75 401.257 34.185 399.847 35.055C398.437 35.925 397.732 37.29 397.732 39.15C397.732 40.35 398.047 41.34 398.677 42.12C399.307 42.87 400.297 43.545 401.647 44.145C402.997 44.715 404.737 45.345 406.867 46.035C409.117 46.755 410.977 47.475 412.447 48.195C413.917 48.915 415.012 49.8 415.732 50.85C416.452 51.87 416.812 53.205 416.812 54.855C416.812 56.685 416.347 58.245 415.417 59.535C414.517 60.795 413.227 61.77 411.547 62.46C409.867 63.12 407.857 63.45 405.517 63.45ZM431.593 63.45C429.493 63.45 427.708 63.045 426.238 62.235C424.768 61.395 423.643 60.195 422.863 58.635C422.113 57.075 421.708 55.23 421.648 53.1C421.618 52.65 421.603 52.05 421.603 51.3C421.603 50.55 421.618 49.95 421.648 49.5C421.708 47.34 422.113 45.495 422.863 43.965C423.643 42.405 424.768 41.22 426.238 40.41C427.708 39.57 429.493 39.15 431.593 39.15C433.183 39.15 434.548 39.375 435.688 39.825C436.858 40.245 437.818 40.815 438.568 41.535C439.318 42.225 439.888 42.99 440.278 43.83C440.668 44.67 440.878 45.495 440.908 46.305C440.938 46.605 440.848 46.845 440.638 47.025C440.428 47.205 440.188 47.295 439.918 47.295H439.288C438.988 47.295 438.763 47.235 438.613 47.115C438.493 46.965 438.358 46.71 438.208 46.35C437.578 44.64 436.708 43.455 435.598 42.795C434.518 42.105 433.183 41.76 431.593 41.76C429.553 41.76 427.858 42.39 426.508 43.65C425.188 44.88 424.483 46.905 424.393 49.725C424.333 50.775 424.333 51.825 424.393 52.875C424.483 55.695 425.188 57.735 426.508 58.995C427.858 60.225 429.553 60.84 431.593 60.84C433.183 60.84 434.518 60.51 435.598 59.85C436.708 59.16 437.578 57.96 438.208 56.25C438.358 55.89 438.493 55.65 438.613 55.53C438.763 55.38 438.988 55.305 439.288 55.305H439.918C440.188 55.305 440.428 55.395 440.638 55.575C440.848 55.755 440.938 55.995 440.908 56.295C440.878 56.955 440.743 57.615 440.503 58.275C440.263 58.935 439.888 59.58 439.378 60.21C438.898 60.84 438.298 61.395 437.578 61.875C436.858 62.355 435.988 62.73 434.968 63C433.978 63.3 432.853 63.45 431.593 63.45ZM447.889 63C447.589 63 447.349 62.91 447.169 62.73C446.989 62.55 446.899 62.31 446.899 62.01V32.04C446.899 31.74 446.989 31.5 447.169 31.32C447.349 31.14 447.589 31.05 447.889 31.05H448.654C448.954 31.05 449.194 31.14 449.374 31.32C449.554 31.5 449.644 31.74 449.644 32.04V42.705C450.454 41.655 451.429 40.8 452.569 40.14C453.739 39.48 455.284 39.15 457.204 39.15C459.244 39.15 460.939 39.6 462.289 40.5C463.669 41.37 464.689 42.57 465.349 44.1C466.039 45.6 466.384 47.31 466.384 49.23V62.01C466.384 62.31 466.294 62.55 466.114 62.73C465.934 62.91 465.694 63 465.394 63H464.629C464.329 63 464.089 62.91 463.909 62.73C463.729 62.55 463.639 62.31 463.639 62.01V49.455C463.639 47.055 463.054 45.18 461.884 43.83C460.714 42.45 459.004 41.76 456.754 41.76C454.624 41.76 452.899 42.45 451.579 43.83C450.289 45.18 449.644 47.055 449.644 49.455V62.01C449.644 62.31 449.554 62.55 449.374 62.73C449.194 62.91 448.954 63 448.654 63H447.889ZM482.126 63.45C479.216 63.45 476.906 62.505 475.196 60.615C473.486 58.695 472.511 56.19 472.271 53.1C472.241 52.65 472.226 52.05 472.226 51.3C472.226 50.55 472.241 49.95 472.271 49.5C472.421 47.46 472.901 45.66 473.711 44.1C474.521 42.54 475.631 41.325 477.041 40.455C478.481 39.585 480.176 39.15 482.126 39.15C484.226 39.15 486.011 39.615 487.481 40.545C488.951 41.475 490.076 42.81 490.856 44.55C491.666 46.29 492.071 48.36 492.071 50.76V51.435C492.071 51.735 491.966 51.975 491.756 52.155C491.576 52.335 491.336 52.425 491.036 52.425H475.016C475.016 52.425 475.016 52.485 475.016 52.605C475.016 52.725 475.016 52.815 475.016 52.875C475.076 54.225 475.391 55.515 475.961 56.745C476.531 57.945 477.341 58.935 478.391 59.715C479.441 60.465 480.686 60.84 482.126 60.84C483.416 60.84 484.481 60.645 485.321 60.255C486.191 59.865 486.881 59.445 487.391 58.995C487.901 58.515 488.231 58.155 488.381 57.915C488.651 57.525 488.861 57.3 489.011 57.24C489.161 57.15 489.401 57.105 489.731 57.105H490.451C490.721 57.105 490.946 57.195 491.126 57.375C491.336 57.525 491.426 57.735 491.396 58.005C491.366 58.425 491.126 58.95 490.676 59.58C490.256 60.18 489.641 60.78 488.831 61.38C488.051 61.98 487.091 62.475 485.951 62.865C484.811 63.255 483.536 63.45 482.126 63.45ZM475.016 49.905H489.326V49.725C489.326 48.225 489.041 46.875 488.471 45.675C487.901 44.475 487.076 43.53 485.996 42.84C484.916 42.12 483.626 41.76 482.126 41.76C480.626 41.76 479.336 42.12 478.256 42.84C477.206 43.53 476.396 44.475 475.826 45.675C475.286 46.875 475.016 48.225 475.016 49.725V49.905ZM498.997 63C498.697 63 498.457 62.91 498.277 62.73C498.097 62.55 498.007 62.31 498.007 62.01V40.59C498.007 40.29 498.097 40.05 498.277 39.87C498.457 39.69 498.697 39.6 498.997 39.6H499.762C500.062 39.6 500.302 39.69 500.482 39.87C500.662 40.05 500.752 40.29 500.752 40.59V42.165C501.502 41.205 502.387 40.47 503.407 39.96C504.457 39.42 505.717 39.15 507.187 39.15C510.547 39.15 512.947 40.56 514.387 43.38C515.077 42.09 516.082 41.07 517.402 40.32C518.752 39.54 520.297 39.15 522.037 39.15C523.627 39.15 525.052 39.525 526.312 40.275C527.602 40.995 528.607 42.075 529.327 43.515C530.077 44.955 530.452 46.755 530.452 48.915V62.01C530.452 62.31 530.362 62.55 530.182 62.73C530.002 62.91 529.762 63 529.462 63H528.697C528.397 63 528.157 62.91 527.977 62.73C527.797 62.55 527.707 62.31 527.707 62.01V49.365C527.707 47.385 527.422 45.855 526.852 44.775C526.282 43.665 525.532 42.885 524.602 42.435C523.672 41.985 522.667 41.76 521.587 41.76C520.687 41.76 519.772 41.985 518.842 42.435C517.912 42.885 517.132 43.665 516.502 44.775C515.902 45.855 515.602 47.385 515.602 49.365V62.01C515.602 62.31 515.512 62.55 515.332 62.73C515.152 62.91 514.912 63 514.612 63H513.847C513.547 63 513.307 62.91 513.127 62.73C512.947 62.55 512.857 62.31 512.857 62.01V49.365C512.857 47.385 512.557 45.855 511.957 44.775C511.357 43.665 510.592 42.885 509.662 42.435C508.732 41.985 507.757 41.76 506.737 41.76C505.837 41.76 504.922 41.985 503.992 42.435C503.062 42.885 502.282 43.665 501.652 44.775C501.052 45.855 500.752 47.37 500.752 49.32V62.01C500.752 62.31 500.662 62.55 500.482 62.73C500.302 62.91 500.062 63 499.762 63H498.997ZM546.199 63.45C543.289 63.45 540.979 62.505 539.269 60.615C537.559 58.695 536.584 56.19 536.344 53.1C536.314 52.65 536.299 52.05 536.299 51.3C536.299 50.55 536.314 49.95 536.344 49.5C536.494 47.46 536.974 45.66 537.784 44.1C538.594 42.54 539.704 41.325 541.114 40.455C542.554 39.585 544.249 39.15 546.199 39.15C548.299 39.15 550.084 39.615 551.554 40.545C553.024 41.475 554.149 42.81 554.929 44.55C555.739 46.29 556.144 48.36 556.144 50.76V51.435C556.144 51.735 556.039 51.975 555.829 52.155C555.649 52.335 555.409 52.425 555.109 52.425L539.089 52.425C539.089 52.425 539.089 52.485 539.089 52.605C539.089 52.725 539.089 52.815 539.089 52.875C539.149 54.225 539.464 55.515 540.034 56.745C540.604 57.945 541.414 58.935 542.464 59.715C543.514 60.465 544.759 60.84 546.199 60.84C547.489 60.84 548.554 60.645 549.394 60.255C550.264 59.865 550.954 59.445 551.464 58.995C551.974 58.515 552.304 58.155 552.454 57.915C552.724 57.525 552.934 57.3 553.084 57.24C553.234 57.15 553.474 57.105 553.804 57.105H554.524C554.794 57.105 555.019 57.195 555.199 57.375C555.409 57.525 555.499 57.735 555.469 58.005C555.439 58.425 555.199 58.95 554.749 59.58C554.329 60.18 553.714 60.78 552.904 61.38C552.124 61.98 551.164 62.475 550.024 62.865C548.884 63.255 547.609 63.45 546.199 63.45ZM539.089 49.905L553.399 49.905V49.725C553.399 48.225 553.114 46.875 552.544 45.675C551.974 44.475 551.149 43.53 550.069 42.84C548.989 42.12 547.699 41.76 546.199 41.76C544.699 41.76 543.409 42.12 542.329 42.84C541.279 43.53 540.469 44.475 539.899 45.675C539.359 46.875 539.089 48.225 539.089 49.725V49.905ZM569.504 63.45C567.944 63.45 566.594 63.24 565.454 62.82C564.344 62.4 563.429 61.905 562.709 61.335C561.989 60.735 561.449 60.15 561.089 59.58C560.759 59.01 560.579 58.575 560.549 58.275C560.519 57.945 560.624 57.705 560.864 57.555C561.104 57.375 561.329 57.285 561.539 57.285H562.214C562.394 57.285 562.544 57.315 562.664 57.375C562.814 57.435 562.994 57.6 563.204 57.87C563.594 58.38 564.044 58.875 564.554 59.355C565.064 59.805 565.709 60.165 566.489 60.435C567.299 60.705 568.304 60.84 569.504 60.84C571.304 60.84 572.789 60.495 573.959 59.805C575.129 59.115 575.714 58.095 575.714 56.745C575.714 55.905 575.474 55.23 574.994 54.72C574.544 54.21 573.764 53.76 572.654 53.37C571.544 52.98 570.044 52.575 568.154 52.155C566.264 51.705 564.809 51.165 563.789 50.535C562.799 49.905 562.124 49.185 561.764 48.375C561.404 47.535 561.224 46.635 561.224 45.675C561.224 44.625 561.524 43.605 562.124 42.615C562.724 41.595 563.609 40.77 564.779 40.14C565.979 39.48 567.479 39.15 569.279 39.15C570.749 39.15 571.994 39.345 573.014 39.735C574.064 40.125 574.919 40.605 575.579 41.175C576.239 41.715 576.719 42.255 577.019 42.795C577.349 43.335 577.529 43.77 577.559 44.1C577.589 44.4 577.499 44.64 577.289 44.82C577.079 45 576.839 45.09 576.569 45.09H575.894C575.654 45.09 575.459 45.045 575.309 44.955C575.159 44.835 575.024 44.685 574.904 44.505C574.604 44.025 574.244 43.575 573.824 43.155C573.404 42.735 572.834 42.405 572.114 42.165C571.424 41.895 570.479 41.76 569.279 41.76C567.479 41.76 566.144 42.135 565.274 42.885C564.404 43.605 563.969 44.535 563.969 45.675C563.969 46.335 564.149 46.92 564.509 47.43C564.869 47.91 565.544 48.36 566.534 48.78C567.524 49.17 568.964 49.59 570.854 50.04C572.774 50.46 574.289 50.985 575.399 51.615C576.509 52.215 577.289 52.935 577.739 53.775C578.219 54.615 578.459 55.605 578.459 56.745C578.459 57.945 578.114 59.055 577.424 60.075C576.764 61.095 575.759 61.92 574.409 62.55C573.089 63.15 571.454 63.45 569.504 63.45Z" fill="#414F7B"/>
<path d="M151.854 530C151.66 530 151.506 529.942 151.39 529.826C151.274 529.71 151.216 529.555 151.216 529.362V510.367C151.216 510.154 151.274 509.99 151.39 509.874C151.506 509.758 151.66 509.7 151.854 509.7H159.423C160.776 509.7 161.878 509.942 162.729 510.425C163.599 510.908 164.237 511.546 164.643 512.339C165.049 513.112 165.252 513.963 165.252 514.891C165.252 515.722 165.116 516.438 164.846 517.037C164.594 517.617 164.266 518.091 163.86 518.458C163.473 518.825 163.086 519.106 162.7 519.299C163.473 519.686 164.159 520.304 164.759 521.155C165.358 522.006 165.658 523.04 165.658 524.258C165.658 525.225 165.426 526.153 164.962 527.042C164.517 527.912 163.84 528.627 162.932 529.188C162.042 529.729 160.94 530 159.626 530H151.854ZM153.043 528.26H159.336C160.766 528.26 161.868 527.883 162.642 527.129C163.434 526.375 163.831 525.418 163.831 524.258C163.831 523.079 163.434 522.122 162.642 521.387C161.868 520.633 160.766 520.256 159.336 520.256H153.043V528.26ZM153.043 518.516H159.046C160.476 518.516 161.559 518.197 162.294 517.559C163.048 516.921 163.425 516.032 163.425 514.891C163.425 513.75 163.048 512.89 162.294 512.31C161.559 511.73 160.476 511.44 159.046 511.44H153.043V518.516ZM170.423 530C170.23 530 170.075 529.942 169.959 529.826C169.843 529.71 169.785 529.555 169.785 529.362V515.587C169.785 515.394 169.843 515.239 169.959 515.123C170.075 514.988 170.23 514.92 170.423 514.92H170.887C171.08 514.92 171.235 514.988 171.351 515.123C171.486 515.239 171.554 515.394 171.554 515.587V516.921C171.902 516.244 172.405 515.742 173.062 515.413C173.719 515.084 174.531 514.92 175.498 514.92H176.571C176.764 514.92 176.919 514.978 177.035 515.094C177.151 515.21 177.209 515.365 177.209 515.558V515.964C177.209 516.157 177.151 516.312 177.035 516.428C176.919 516.544 176.764 516.602 176.571 516.602H175.324C174.164 516.602 173.246 516.94 172.569 517.617C171.892 518.294 171.554 519.212 171.554 520.372V529.362C171.554 529.555 171.486 529.71 171.351 529.826C171.235 529.942 171.08 530 170.887 530H170.423ZM185.269 530.29C183.877 530.29 182.708 530 181.76 529.42C180.832 528.84 180.117 528.047 179.614 527.042C179.131 526.037 178.87 524.915 178.831 523.678C178.812 523.388 178.802 522.982 178.802 522.46C178.802 521.938 178.812 521.532 178.831 521.242C178.87 519.985 179.131 518.864 179.614 517.878C180.117 516.873 180.832 516.08 181.76 515.5C182.708 514.92 183.877 514.63 185.269 514.63C186.661 514.63 187.821 514.92 188.749 515.5C189.697 516.08 190.412 516.873 190.895 517.878C191.398 518.864 191.669 519.985 191.707 521.242C191.727 521.532 191.736 521.938 191.736 522.46C191.736 522.982 191.727 523.388 191.707 523.678C191.669 524.915 191.398 526.037 190.895 527.042C190.412 528.047 189.697 528.84 188.749 529.42C187.821 530 186.661 530.29 185.269 530.29ZM185.269 528.608C186.623 528.608 187.725 528.173 188.575 527.303C189.426 526.433 189.88 525.176 189.938 523.533C189.958 523.243 189.967 522.885 189.967 522.46C189.967 522.035 189.958 521.677 189.938 521.387C189.88 519.724 189.426 518.468 188.575 517.617C187.725 516.747 186.623 516.312 185.269 516.312C183.916 516.312 182.814 516.747 181.963 517.617C181.113 518.468 180.658 519.724 180.6 521.387C180.581 521.677 180.571 522.035 180.571 522.46C180.571 522.885 180.581 523.243 180.6 523.533C180.658 525.176 181.113 526.433 181.963 527.303C182.814 528.173 183.916 528.608 185.269 528.608ZM199.758 530.29C198.83 530.29 197.97 530.097 197.177 529.71C196.404 529.323 195.775 528.811 195.292 528.173C194.809 527.516 194.567 526.781 194.567 525.969C194.567 524.654 195.099 523.601 196.162 522.808C197.225 522.015 198.608 521.503 200.309 521.271L204.891 520.633V519.618C204.891 518.593 204.572 517.791 203.934 517.211C203.315 516.612 202.32 516.312 200.947 516.312C199.942 516.312 199.13 516.515 198.511 516.921C197.892 517.308 197.467 517.82 197.235 518.458C197.138 518.748 196.955 518.893 196.684 518.893H196.22C195.988 518.893 195.824 518.835 195.727 518.719C195.63 518.584 195.582 518.429 195.582 518.255C195.582 517.984 195.679 517.646 195.872 517.24C196.085 516.834 196.404 516.438 196.829 516.051C197.254 515.645 197.805 515.307 198.482 515.036C199.159 514.765 199.98 514.63 200.947 514.63C202.088 514.63 203.025 514.785 203.76 515.094C204.514 515.403 205.094 515.809 205.5 516.312C205.925 516.795 206.225 517.337 206.399 517.936C206.573 518.535 206.66 519.125 206.66 519.705V529.362C206.66 529.555 206.602 529.71 206.486 529.826C206.37 529.942 206.215 530 206.022 530H205.529C205.336 530 205.181 529.942 205.065 529.826C204.949 529.71 204.891 529.555 204.891 529.362V527.999C204.659 528.347 204.33 528.695 203.905 529.043C203.48 529.391 202.929 529.691 202.252 529.942C201.595 530.174 200.763 530.29 199.758 530.29ZM200.048 528.608C200.937 528.608 201.749 528.415 202.484 528.028C203.219 527.641 203.799 527.052 204.224 526.259C204.669 525.447 204.891 524.432 204.891 523.214V522.228L201.15 522.75C199.565 522.963 198.366 523.33 197.554 523.852C196.742 524.374 196.336 525.031 196.336 525.824C196.336 526.462 196.52 526.984 196.887 527.39C197.254 527.796 197.718 528.105 198.279 528.318C198.859 528.511 199.449 528.608 200.048 528.608ZM216.698 530.29C215.577 530.29 214.62 530.087 213.827 529.681C213.054 529.275 212.425 528.734 211.942 528.057C211.459 527.38 211.101 526.626 210.869 525.795C210.656 524.964 210.531 524.123 210.492 523.272C210.473 522.982 210.463 522.711 210.463 522.46C210.463 522.209 210.473 521.938 210.492 521.648C210.531 520.797 210.656 519.956 210.869 519.125C211.101 518.294 211.459 517.54 211.942 516.863C212.425 516.186 213.054 515.645 213.827 515.239C214.62 514.833 215.577 514.63 216.698 514.63C217.897 514.63 218.883 514.852 219.656 515.297C220.449 515.742 221.087 516.283 221.57 516.921V510.048C221.57 509.855 221.628 509.7 221.744 509.584C221.86 509.468 222.015 509.41 222.208 509.41H222.701C222.894 509.41 223.049 509.468 223.165 509.584C223.281 509.7 223.339 509.855 223.339 510.048V529.362C223.339 529.555 223.281 529.71 223.165 529.826C223.049 529.942 222.894 530 222.701 530H222.208C222.015 530 221.86 529.942 221.744 529.826C221.628 529.71 221.57 529.555 221.57 529.362V527.999C221.087 528.656 220.449 529.207 219.656 529.652C218.883 530.077 217.897 530.29 216.698 530.29ZM216.872 528.608C217.974 528.608 218.863 528.347 219.54 527.825C220.217 527.303 220.719 526.655 221.048 525.882C221.377 525.089 221.551 524.297 221.57 523.504C221.589 523.214 221.599 522.837 221.599 522.373C221.599 521.909 221.589 521.532 221.57 521.242C221.551 520.469 221.367 519.705 221.019 518.951C220.69 518.197 220.188 517.569 219.511 517.066C218.834 516.563 217.955 516.312 216.872 516.312C215.751 516.312 214.852 516.563 214.175 517.066C213.518 517.569 213.044 518.226 212.754 519.038C212.464 519.85 212.3 520.72 212.261 521.648C212.242 522.189 212.242 522.731 212.261 523.272C212.3 524.2 212.464 525.07 212.754 525.882C213.044 526.694 213.518 527.351 214.175 527.854C214.852 528.357 215.751 528.608 216.872 528.608ZM233.781 530.29C232.428 530.29 231.278 530.029 230.33 529.507C229.383 528.966 228.658 528.192 228.155 527.187C227.672 526.182 227.411 524.993 227.372 523.62C227.353 523.33 227.343 522.943 227.343 522.46C227.343 521.977 227.353 521.59 227.372 521.3C227.411 519.908 227.672 518.719 228.155 517.733C228.658 516.728 229.383 515.964 230.33 515.442C231.278 514.901 232.428 514.63 233.781 514.63C234.806 514.63 235.686 514.775 236.42 515.065C237.174 515.336 237.793 515.703 238.276 516.167C238.76 516.612 239.127 517.105 239.378 517.646C239.63 518.187 239.765 518.719 239.784 519.241C239.804 519.434 239.746 519.589 239.61 519.705C239.475 519.821 239.32 519.879 239.146 519.879H238.74C238.547 519.879 238.402 519.84 238.305 519.763C238.228 519.666 238.141 519.502 238.044 519.27C237.638 518.168 237.078 517.404 236.362 516.979C235.666 516.534 234.806 516.312 233.781 516.312C232.467 516.312 231.374 516.718 230.504 517.53C229.654 518.323 229.199 519.628 229.141 521.445C229.103 522.122 229.103 522.798 229.141 523.475C229.199 525.292 229.654 526.607 230.504 527.419C231.374 528.212 232.467 528.608 233.781 528.608C234.806 528.608 235.666 528.395 236.362 527.97C237.078 527.525 237.638 526.752 238.044 525.65C238.141 525.418 238.228 525.263 238.305 525.186C238.402 525.089 238.547 525.041 238.74 525.041H239.146C239.32 525.041 239.475 525.099 239.61 525.215C239.746 525.331 239.804 525.486 239.784 525.679C239.765 526.104 239.678 526.53 239.523 526.955C239.369 527.38 239.127 527.796 238.798 528.202C238.489 528.608 238.102 528.966 237.638 529.275C237.174 529.584 236.614 529.826 235.956 530C235.318 530.193 234.593 530.29 233.781 530.29ZM247.676 530.29C246.748 530.29 245.888 530.097 245.095 529.71C244.322 529.323 243.693 528.811 243.21 528.173C242.727 527.516 242.485 526.781 242.485 525.969C242.485 524.654 243.017 523.601 244.08 522.808C245.143 522.015 246.526 521.503 248.227 521.271L252.809 520.633V519.618C252.809 518.593 252.49 517.791 251.852 517.211C251.233 516.612 250.238 516.312 248.865 516.312C247.86 516.312 247.048 516.515 246.429 516.921C245.81 517.308 245.385 517.82 245.153 518.458C245.056 518.748 244.873 518.893 244.602 518.893H244.138C243.906 518.893 243.742 518.835 243.645 518.719C243.548 518.584 243.5 518.429 243.5 518.255C243.5 517.984 243.597 517.646 243.79 517.24C244.003 516.834 244.322 516.438 244.747 516.051C245.172 515.645 245.723 515.307 246.4 515.036C247.077 514.765 247.898 514.63 248.865 514.63C250.006 514.63 250.943 514.785 251.678 515.094C252.432 515.403 253.012 515.809 253.418 516.312C253.843 516.795 254.143 517.337 254.317 517.936C254.491 518.535 254.578 519.125 254.578 519.705V529.362C254.578 529.555 254.52 529.71 254.404 529.826C254.288 529.942 254.133 530 253.94 530H253.447C253.254 530 253.099 529.942 252.983 529.826C252.867 529.71 252.809 529.555 252.809 529.362V527.999C252.577 528.347 252.248 528.695 251.823 529.043C251.398 529.391 250.847 529.691 250.17 529.942C249.513 530.174 248.681 530.29 247.676 530.29ZM247.966 528.608C248.855 528.608 249.667 528.415 250.402 528.028C251.137 527.641 251.717 527.052 252.142 526.259C252.587 525.447 252.809 524.432 252.809 523.214V522.228L249.068 522.75C247.483 522.963 246.284 523.33 245.472 523.852C244.66 524.374 244.254 525.031 244.254 525.824C244.254 526.462 244.438 526.984 244.805 527.39C245.172 527.796 245.636 528.105 246.197 528.318C246.777 528.511 247.367 528.608 247.966 528.608ZM263.949 530.29C262.944 530.29 262.074 530.155 261.339 529.884C260.624 529.613 260.034 529.294 259.57 528.927C259.106 528.54 258.758 528.163 258.526 527.796C258.313 527.429 258.197 527.148 258.178 526.955C258.159 526.742 258.226 526.588 258.381 526.491C258.536 526.375 258.681 526.317 258.816 526.317H259.251C259.367 526.317 259.464 526.336 259.541 526.375C259.638 526.414 259.754 526.52 259.889 526.694C260.14 527.023 260.43 527.342 260.759 527.651C261.088 527.941 261.503 528.173 262.006 528.347C262.528 528.521 263.176 528.608 263.949 528.608C265.109 528.608 266.066 528.386 266.82 527.941C267.574 527.496 267.951 526.839 267.951 525.969C267.951 525.428 267.796 524.993 267.487 524.664C267.197 524.335 266.694 524.045 265.979 523.794C265.264 523.543 264.297 523.282 263.079 523.011C261.861 522.721 260.923 522.373 260.266 521.967C259.628 521.561 259.193 521.097 258.961 520.575C258.729 520.034 258.613 519.454 258.613 518.835C258.613 518.158 258.806 517.501 259.193 516.863C259.58 516.206 260.15 515.674 260.904 515.268C261.677 514.843 262.644 514.63 263.804 514.63C264.751 514.63 265.554 514.756 266.211 515.007C266.888 515.258 267.439 515.568 267.864 515.935C268.289 516.283 268.599 516.631 268.792 516.979C269.005 517.327 269.121 517.607 269.14 517.82C269.159 518.013 269.101 518.168 268.966 518.284C268.831 518.4 268.676 518.458 268.502 518.458H268.067C267.912 518.458 267.787 518.429 267.69 518.371C267.593 518.294 267.506 518.197 267.429 518.081C267.236 517.772 267.004 517.482 266.733 517.211C266.462 516.94 266.095 516.728 265.631 516.573C265.186 516.399 264.577 516.312 263.804 516.312C262.644 516.312 261.784 516.554 261.223 517.037C260.662 517.501 260.382 518.1 260.382 518.835C260.382 519.26 260.498 519.637 260.73 519.966C260.962 520.275 261.397 520.565 262.035 520.836C262.673 521.087 263.601 521.358 264.819 521.648C266.056 521.919 267.033 522.257 267.748 522.663C268.463 523.05 268.966 523.514 269.256 524.055C269.565 524.596 269.72 525.234 269.72 525.969C269.72 526.742 269.498 527.458 269.053 528.115C268.628 528.772 267.98 529.304 267.11 529.71C266.259 530.097 265.206 530.29 263.949 530.29ZM278.512 530C277.507 530 276.714 529.787 276.134 529.362C275.554 528.937 275.148 528.357 274.916 527.622C274.684 526.887 274.568 526.066 274.568 525.157V516.602H272.306C272.113 516.602 271.958 516.544 271.842 516.428C271.726 516.312 271.668 516.157 271.668 515.964V515.558C271.668 515.365 271.726 515.21 271.842 515.094C271.958 514.978 272.113 514.92 272.306 514.92H274.568V510.048C274.568 509.855 274.626 509.7 274.742 509.584C274.858 509.468 275.013 509.41 275.206 509.41H275.699C275.893 509.41 276.047 509.468 276.163 509.584C276.279 509.7 276.337 509.855 276.337 510.048V514.92H279.933C280.127 514.92 280.281 514.978 280.397 515.094C280.513 515.21 280.571 515.365 280.571 515.558V515.964C280.571 516.157 280.513 516.312 280.397 516.428C280.281 516.544 280.127 516.602 279.933 516.602H276.337V525.041C276.337 526.066 276.502 526.868 276.83 527.448C277.178 528.028 277.787 528.318 278.657 528.318H280.223C280.417 528.318 280.571 528.376 280.687 528.492C280.803 528.608 280.861 528.763 280.861 528.956V529.362C280.861 529.555 280.803 529.71 280.687 529.826C280.571 529.942 280.417 530 280.223 530H278.512Z" fill="#414F7B"/>
<path d="M560.133 530C559.978 530 559.843 529.942 559.727 529.826C559.611 529.71 559.553 529.575 559.553 529.42C559.553 529.323 559.572 529.217 559.611 529.101L566.948 510.28C567.025 510.087 567.122 509.942 567.238 509.845C567.373 509.748 567.557 509.7 567.789 509.7H568.775C569.007 509.7 569.181 509.748 569.297 509.845C569.432 509.942 569.539 510.087 569.616 510.28L576.953 529.101C576.992 529.217 577.011 529.323 577.011 529.42C577.011 529.575 576.953 529.71 576.837 529.826C576.721 529.942 576.586 530 576.431 530H575.851C575.658 530 575.513 529.952 575.416 529.855C575.319 529.739 575.252 529.642 575.213 529.565L573.415 524.925H563.149L561.351 529.565C561.332 529.642 561.264 529.739 561.148 529.855C561.051 529.952 560.906 530 560.713 530H560.133ZM563.845 523.185H572.719L568.282 511.759L563.845 523.185ZM580.705 530C580.512 530 580.357 529.942 580.241 529.826C580.125 529.71 580.067 529.555 580.067 529.362V515.558C580.067 515.365 580.125 515.21 580.241 515.094C580.357 514.978 580.512 514.92 580.705 514.92H581.198C581.392 514.92 581.546 514.978 581.662 515.094C581.778 515.21 581.836 515.365 581.836 515.558V516.921C582.358 516.244 582.987 515.693 583.721 515.268C584.475 514.843 585.471 514.63 586.708 514.63C588.023 514.63 589.115 514.92 589.985 515.5C590.875 516.061 591.532 516.834 591.957 517.82C592.402 518.787 592.624 519.889 592.624 521.126V529.362C592.624 529.555 592.566 529.71 592.45 529.826C592.334 529.942 592.18 530 591.986 530H591.493C591.3 530 591.145 529.942 591.029 529.826C590.913 529.71 590.855 529.555 590.855 529.362V521.271C590.855 519.724 590.478 518.516 589.724 517.646C588.97 516.757 587.868 516.312 586.418 516.312C585.046 516.312 583.934 516.757 583.083 517.646C582.252 518.516 581.836 519.724 581.836 521.271V529.362C581.836 529.555 581.778 529.71 581.662 529.826C581.546 529.942 581.392 530 581.198 530H580.705ZM599.3 535.51C599.145 535.51 599.01 535.452 598.894 535.336C598.778 535.22 598.72 535.085 598.72 534.93C598.72 534.853 598.73 534.766 598.749 534.669C598.788 534.592 598.836 534.485 598.894 534.35L601.127 529.13L595.588 516.08C595.472 515.79 595.414 515.597 595.414 515.5C595.414 515.345 595.472 515.21 595.588 515.094C595.704 514.978 595.839 514.92 595.994 514.92H596.603C596.796 514.92 596.941 514.968 597.038 515.065C597.154 515.142 597.231 515.239 597.27 515.355L602.142 526.839L607.13 515.355C607.188 515.239 607.265 515.142 607.362 515.065C607.459 514.968 607.604 514.92 607.797 514.92H608.377C608.532 514.92 608.667 514.978 608.783 515.094C608.899 515.21 608.957 515.345 608.957 515.5C608.957 515.597 608.899 515.79 608.783 516.08L600.547 535.075C600.489 535.191 600.412 535.288 600.315 535.365C600.218 535.462 600.073 535.51 599.88 535.51H599.3ZM617.414 530.29C616.061 530.29 614.91 530.029 613.963 529.507C613.016 528.966 612.291 528.192 611.788 527.187C611.305 526.182 611.044 524.993 611.005 523.62C610.986 523.33 610.976 522.943 610.976 522.46C610.976 521.977 610.986 521.59 611.005 521.3C611.044 519.908 611.305 518.719 611.788 517.733C612.291 516.728 613.016 515.964 613.963 515.442C614.91 514.901 616.061 514.63 617.414 514.63C618.439 514.63 619.318 514.775 620.053 515.065C620.807 515.336 621.426 515.703 621.909 516.167C622.392 516.612 622.76 517.105 623.011 517.646C623.262 518.187 623.398 518.719 623.417 519.241C623.436 519.434 623.378 519.589 623.243 519.705C623.108 519.821 622.953 519.879 622.779 519.879H622.373C622.18 519.879 622.035 519.84 621.938 519.763C621.861 519.666 621.774 519.502 621.677 519.27C621.271 518.168 620.71 517.404 619.995 516.979C619.299 516.534 618.439 516.312 617.414 516.312C616.099 516.312 615.007 516.718 614.137 517.53C613.286 518.323 612.832 519.628 612.774 521.445C612.735 522.122 612.735 522.798 612.774 523.475C612.832 525.292 613.286 526.607 614.137 527.419C615.007 528.212 616.099 528.608 617.414 528.608C618.439 528.608 619.299 528.395 619.995 527.97C620.71 527.525 621.271 526.752 621.677 525.65C621.774 525.418 621.861 525.263 621.938 525.186C622.035 525.089 622.18 525.041 622.373 525.041H622.779C622.953 525.041 623.108 525.099 623.243 525.215C623.378 525.331 623.436 525.486 623.417 525.679C623.398 526.104 623.311 526.53 623.156 526.955C623.001 527.38 622.76 527.796 622.431 528.202C622.122 528.608 621.735 528.966 621.271 529.275C620.807 529.584 620.246 529.826 619.589 530C618.951 530.193 618.226 530.29 617.414 530.29ZM631.309 530.29C630.381 530.29 629.521 530.097 628.728 529.71C627.955 529.323 627.326 528.811 626.843 528.173C626.36 527.516 626.118 526.781 626.118 525.969C626.118 524.654 626.65 523.601 627.713 522.808C628.776 522.015 630.159 521.503 631.86 521.271L636.442 520.633V519.618C636.442 518.593 636.123 517.791 635.485 517.211C634.866 516.612 633.871 516.312 632.498 516.312C631.493 516.312 630.681 516.515 630.062 516.921C629.443 517.308 629.018 517.82 628.786 518.458C628.689 518.748 628.506 518.893 628.235 518.893H627.771C627.539 518.893 627.375 518.835 627.278 518.719C627.181 518.584 627.133 518.429 627.133 518.255C627.133 517.984 627.23 517.646 627.423 517.24C627.636 516.834 627.955 516.438 628.38 516.051C628.805 515.645 629.356 515.307 630.033 515.036C630.71 514.765 631.531 514.63 632.498 514.63C633.639 514.63 634.576 514.785 635.311 515.094C636.065 515.403 636.645 515.809 637.051 516.312C637.476 516.795 637.776 517.337 637.95 517.936C638.124 518.535 638.211 519.125 638.211 519.705V529.362C638.211 529.555 638.153 529.71 638.037 529.826C637.921 529.942 637.766 530 637.573 530H637.08C636.887 530 636.732 529.942 636.616 529.826C636.5 529.71 636.442 529.555 636.442 529.362V527.999C636.21 528.347 635.881 528.695 635.456 529.043C635.031 529.391 634.48 529.691 633.803 529.942C633.146 530.174 632.314 530.29 631.309 530.29ZM631.599 528.608C632.488 528.608 633.3 528.415 634.035 528.028C634.77 527.641 635.35 527.052 635.775 526.259C636.22 525.447 636.442 524.432 636.442 523.214V522.228L632.701 522.75C631.116 522.963 629.917 523.33 629.105 523.852C628.293 524.374 627.887 525.031 627.887 525.824C627.887 526.462 628.071 526.984 628.438 527.39C628.805 527.796 629.269 528.105 629.83 528.318C630.41 528.511 631 528.608 631.599 528.608ZM647.582 530.29C646.576 530.29 645.706 530.155 644.972 529.884C644.256 529.613 643.667 529.294 643.203 528.927C642.739 528.54 642.391 528.163 642.159 527.796C641.946 527.429 641.83 527.148 641.811 526.955C641.791 526.742 641.859 526.588 642.014 526.491C642.168 526.375 642.313 526.317 642.449 526.317H642.884C643 526.317 643.096 526.336 643.174 526.375C643.27 526.414 643.386 526.52 643.522 526.694C643.773 527.023 644.063 527.342 644.392 527.651C644.72 527.941 645.136 528.173 645.639 528.347C646.161 528.521 646.808 528.608 647.582 528.608C648.742 528.608 649.699 528.386 650.453 527.941C651.207 527.496 651.584 526.839 651.584 525.969C651.584 525.428 651.429 524.993 651.12 524.664C650.83 524.335 650.327 524.045 649.612 523.794C648.896 523.543 647.93 523.282 646.712 523.011C645.494 522.721 644.556 522.373 643.899 521.967C643.261 521.561 642.826 521.097 642.594 520.575C642.362 520.034 642.246 519.454 642.246 518.835C642.246 518.158 642.439 517.501 642.826 516.863C643.212 516.206 643.783 515.674 644.537 515.268C645.31 514.843 646.277 514.63 647.437 514.63C648.384 514.63 649.186 514.756 649.844 515.007C650.52 515.258 651.071 515.568 651.497 515.935C651.922 516.283 652.231 516.631 652.425 516.979C652.637 517.327 652.753 517.607 652.773 517.82C652.792 518.013 652.734 518.168 652.599 518.284C652.463 518.4 652.309 518.458 652.135 518.458H651.7C651.545 518.458 651.419 518.429 651.323 518.371C651.226 518.294 651.139 518.197 651.062 518.081C650.868 517.772 650.636 517.482 650.366 517.211C650.095 516.94 649.728 516.728 649.264 516.573C648.819 516.399 648.21 516.312 647.437 516.312C646.277 516.312 645.416 516.554 644.856 517.037C644.295 517.501 644.015 518.1 644.015 518.835C644.015 519.26 644.131 519.637 644.363 519.966C644.595 520.275 645.03 520.565 645.668 520.836C646.306 521.087 647.234 521.358 648.452 521.648C649.689 521.919 650.665 522.257 651.381 522.663C652.096 523.05 652.599 523.514 652.889 524.055C653.198 524.596 653.353 525.234 653.353 525.969C653.353 526.742 653.13 527.458 652.686 528.115C652.26 528.772 651.613 529.304 650.743 529.71C649.892 530.097 648.838 530.29 647.582 530.29ZM662.145 530C661.14 530 660.347 529.787 659.767 529.362C659.187 528.937 658.781 528.357 658.549 527.622C658.317 526.887 658.201 526.066 658.201 525.157V516.602H655.939C655.746 516.602 655.591 516.544 655.475 516.428C655.359 516.312 655.301 516.157 655.301 515.964V515.558C655.301 515.365 655.359 515.21 655.475 515.094C655.591 514.978 655.746 514.92 655.939 514.92H658.201V510.048C658.201 509.855 658.259 509.7 658.375 509.584C658.491 509.468 658.646 509.41 658.839 509.41H659.332C659.526 509.41 659.68 509.468 659.796 509.584C659.912 509.7 659.97 509.855 659.97 510.048V514.92H663.566C663.76 514.92 663.914 514.978 664.03 515.094C664.146 515.21 664.204 515.365 664.204 515.558V515.964C664.204 516.157 664.146 516.312 664.03 516.428C663.914 516.544 663.76 516.602 663.566 516.602H659.97V525.041C659.97 526.066 660.135 526.868 660.463 527.448C660.811 528.028 661.42 528.318 662.29 528.318H663.856C664.05 528.318 664.204 528.376 664.32 528.492C664.436 528.608 664.494 528.763 664.494 528.956V529.362C664.494 529.555 664.436 529.71 664.32 529.826C664.204 529.942 664.05 530 663.856 530H662.145Z" fill="#414F7B"/>
<circle cx="110.5" cy="280.5" r="20.5" fill="url(#paint0_linear_733_1362)"/>
<circle cx="233.5" cy="227.5" r="12.5" fill="#E1F2FF"/>
<circle cx="291.5" cy="243.5" r="12.5" fill="#414F7B"/>
<circle cx="327.5" cy="268.5" r="12.5" fill="#E1F2FF"/>
<circle cx="275.5" cy="297.5" r="12.5" fill="#E1F2FF"/>
<circle cx="300.5" cy="337.5" r="12.5" fill="#E1F2FF"/>
<circle cx="229.5" cy="343.5" r="12.5" fill="#E1F2FF"/>
<circle cx="105.5" cy="637.5" r="20.5" fill="url(#paint1_linear_733_1362)"/>
<circle cx="233.5" cy="585.5" r="12.5" fill="#414F7B"/>
<circle cx="291.5" cy="601.5" r="12.5" fill="#414F7B"/>
<circle cx="327.5" cy="626.5" r="12.5" fill="#414F7B"/>
<circle cx="275.5" cy="655.5" r="12.5" fill="#414F7B"/>
<circle cx="300.5" cy="695.5" r="12.5" fill="#414F7B"/>
<circle cx="229.5" cy="701.5" r="12.5" fill="#414F7B"/>
<line x1="143" y1="280" x2="190" y2="280" stroke="#414F7B" stroke-width="2"/>
<path d="M273.898 251.94C274.141 251.444 273.936 250.845 273.44 250.602L265.356 246.645C264.86 246.402 264.261 246.607 264.018 247.103C263.776 247.599 263.981 248.198 264.477 248.441L271.662 251.958L268.145 259.144C267.902 259.64 268.107 260.239 268.603 260.482C269.099 260.724 269.698 260.519 269.941 260.023L273.898 251.94ZM272.676 250.554L189.417 279.088L190.065 280.98L273.324 252.446L272.676 250.554Z" fill="#414F7B"/>
<line x1="143" y1="636.5" x2="190" y2="636.5" stroke="#414F7B" stroke-width="2"/>
<path d="M273.898 608.44C274.141 607.944 273.936 607.345 273.44 607.102L265.356 603.145C264.86 602.902 264.261 603.107 264.018 603.603C263.776 604.099 263.981 604.698 264.477 604.941L271.662 608.458L268.145 615.644C267.902 616.14 268.107 616.739 268.603 616.982C269.099 617.224 269.698 617.019 269.941 616.523L273.898 608.44ZM272.676 607.054L189.417 635.588L190.065 637.48L273.324 608.946L272.676 607.054Z" fill="#414F7B"/>
<path d="M312.749 629.662C313.115 629.248 313.076 628.617 312.662 628.251L305.919 622.29C305.505 621.924 304.873 621.963 304.507 622.377C304.142 622.791 304.181 623.423 304.594 623.789L310.588 629.087L305.29 635.081C304.924 635.495 304.963 636.127 305.377 636.493C305.791 636.858 306.423 636.819 306.789 636.406L312.749 629.662ZM311.939 628.002L189.679 635.535L189.802 637.531L312.061 629.998L311.939 628.002Z" fill="#414F7B"/>
<path d="M261.051 651.834C261.512 651.53 261.639 650.91 261.334 650.449L256.374 642.939C256.07 642.478 255.449 642.351 254.989 642.656C254.528 642.96 254.401 643.581 254.705 644.041L259.114 650.717L252.439 655.126C251.978 655.43 251.851 656.051 252.156 656.511C252.46 656.972 253.081 657.099 253.541 656.795L261.051 651.834ZM260.7 650.02L189.941 635.553L189.541 637.513L260.3 651.98L260.7 650.02Z" fill="#414F7B"/>
<path d="M286.29 688.957C286.819 688.797 287.117 688.238 286.957 687.71L284.345 679.097C284.185 678.569 283.627 678.27 283.098 678.43C282.57 678.59 282.271 679.149 282.432 679.677L284.753 687.333L277.097 689.655C276.569 689.815 276.27 690.373 276.43 690.902C276.59 691.43 277.149 691.729 277.677 691.568L286.29 688.957ZM286.472 687.118L190.212 635.651L189.269 637.415L285.528 688.882L286.472 687.118Z" fill="#414F7B"/>
<path d="M221.776 688.975C222.315 689.098 222.851 688.762 222.975 688.224L224.987 679.451C225.111 678.913 224.774 678.377 224.236 678.253C223.698 678.13 223.161 678.466 223.038 679.004L221.249 686.802L213.451 685.013C212.913 684.889 212.377 685.226 212.253 685.764C212.13 686.302 212.466 686.839 213.004 686.962L221.776 688.975ZM222.847 687.469L190.588 636.002L188.894 637.064L221.153 688.531L222.847 687.469Z" fill="#414F7B"/>
<path d="M224.498 598.441C224.465 597.889 223.992 597.469 223.441 597.502L214.456 598.037C213.905 598.07 213.485 598.543 213.518 599.095C213.551 599.646 214.024 600.066 214.575 600.033L222.561 599.558L223.037 607.544C223.07 608.095 223.543 608.515 224.095 608.482C224.646 608.449 225.066 607.976 225.033 607.425L224.498 598.441ZM222.752 597.836L188.993 635.872L190.489 637.2L224.248 599.164L222.752 597.836Z" fill="#414F7B"/>
<circle cx="507.5" cy="637.5" r="20.5" fill="url(#paint2_linear_733_1362)"/>
<circle cx="635.5" cy="585.5" r="12.5" fill="#E1F2FF"/>
<circle cx="693.5" cy="601.5" r="12.5" fill="#414F7B"/>
<circle cx="729.5" cy="626.5" r="12.5" fill="#E1F2FF"/>
<circle cx="677.5" cy="655.5" r="12.5" fill="#E1F2FF"/>
<circle cx="702.5" cy="695.5" r="12.5" fill="#414F7B"/>
<circle cx="631.5" cy="701.5" r="12.5" fill="#414F7B"/>
<line x1="545" y1="636.5" x2="592" y2="636.5" stroke="#414F7B" stroke-width="2"/>
<path d="M688.29 688.957C688.819 688.797 689.117 688.238 688.957 687.71L686.345 679.097C686.185 678.569 685.627 678.27 685.098 678.43C684.57 678.59 684.271 679.149 684.432 679.677L686.753 687.333L679.097 689.655C678.569 689.815 678.27 690.373 678.43 690.902C678.59 691.43 679.149 691.729 679.677 691.568L688.29 688.957ZM688.472 687.118L592.212 635.651L591.269 637.415L687.528 688.882L688.472 687.118Z" fill="#414F7B"/>
<path d="M608.811 662.982C609.354 663.086 609.878 662.731 609.982 662.189L611.68 653.35C611.784 652.808 611.429 652.284 610.887 652.18C610.344 652.075 609.82 652.431 609.716 652.973L608.207 660.829L600.35 659.32C599.808 659.216 599.284 659.571 599.18 660.113C599.075 660.656 599.431 661.18 599.973 661.284L608.811 662.982ZM609.828 661.439L592.569 635.972L590.913 637.094L608.172 662.561L609.828 661.439Z" fill="#414F7B"/>
<circle cx="507.5" cy="279.5" r="20.5" fill="url(#paint3_linear_733_1362)"/>
<circle cx="635.5" cy="227.5" r="12.5" fill="#E1F2FF"/>
<circle cx="693.5" cy="243.5" r="12.5" fill="#414F7B"/>
<circle cx="729.5" cy="268.5" r="12.5" fill="#E1F2FF"/>
<circle cx="677.5" cy="297.5" r="12.5" fill="#E1F2FF"/>
<circle cx="702.5" cy="337.5" r="12.5" fill="#414F7B"/>
<circle cx="631.5" cy="343.5" r="12.5" fill="#414F7B"/>
<line x1="545" y1="278.5" x2="592" y2="278.5" stroke="#414F7B" stroke-width="2"/>
<path d="M675.898 250.44C676.141 249.944 675.936 249.345 675.44 249.102L667.356 245.145C666.86 244.902 666.261 245.107 666.018 245.603C665.776 246.099 665.981 246.698 666.477 246.941L673.662 250.458L670.145 257.644C669.902 258.14 670.107 258.739 670.603 258.982C671.099 259.224 671.698 259.019 671.941 258.523L675.898 250.44ZM674.676 249.054L591.417 277.588L592.065 279.48L675.324 250.946L674.676 249.054Z" fill="#414F7B"/>
<path d="M688.29 330.957C688.819 330.797 689.117 330.238 688.957 329.71L686.345 321.097C686.185 320.569 685.627 320.27 685.098 320.43C684.57 320.59 684.271 321.149 684.432 321.677L686.753 329.333L679.097 331.655C678.569 331.815 678.27 332.373 678.43 332.902C678.59 333.43 679.149 333.729 679.677 333.568L688.29 330.957ZM688.472 329.118L592.212 277.651L591.269 279.415L687.528 330.882L688.472 329.118Z" fill="#414F7B"/>
<path d="M623.776 330.975C624.315 331.098 624.851 330.762 624.975 330.224L626.987 321.451C627.111 320.913 626.774 320.377 626.236 320.253C625.698 320.13 625.161 320.466 625.038 321.004L623.249 328.802L615.451 327.013C614.913 326.889 614.377 327.226 614.253 327.764C614.13 328.302 614.466 328.839 615.004 328.962L623.776 330.975ZM624.847 329.469L592.588 278.002L590.894 279.064L623.153 330.531L624.847 329.469Z" fill="#414F7B"/>
<line x1="410.5" y1="95" x2="410.5" y2="780" stroke="#414F7B"/>
<line x1="4.87265e-08" y1="436.5" x2="802" y2="436.5" stroke="#414F7B"/>
<defs>
<linearGradient id="paint0_linear_733_1362" x1="110.5" y1="260" x2="110.5" y2="316.636" gradientUnits="userSpaceOnUse">
<stop stop-color="#FFAA49"/>
<stop offset="1" stop-color="#FF7754"/>
</linearGradient>
<linearGradient id="paint1_linear_733_1362" x1="105.5" y1="617" x2="105.5" y2="673.636" gradientUnits="userSpaceOnUse">
<stop stop-color="#FFAA49"/>
<stop offset="1" stop-color="#FF7754"/>
</linearGradient>
<linearGradient id="paint2_linear_733_1362" x1="507.5" y1="617" x2="507.5" y2="673.636" gradientUnits="userSpaceOnUse">
<stop stop-color="#FFAA49"/>
<stop offset="1" stop-color="#FF7754"/>
</linearGradient>
<linearGradient id="paint3_linear_733_1362" x1="507.5" y1="259" x2="507.5" y2="315.636" gradientUnits="userSpaceOnUse">
<stop stop-color="#FFAA49"/>
<stop offset="1" stop-color="#FF7754"/>
</linearGradient>
</defs>
</svg>
